<svg xmlns="http://www.w3.org/2000/svg" viewBox="0 0 360 360" role="img" aria-labelledby="title desc">
  <title id="title">XZ_NOTE avatar</title>
  <desc id="desc">A minimal developer avatar with a purple and teal gradient</desc>
  <defs>
    <linearGradient id="bg" x1="20" y1="15" x2="335" y2="350" gradientUnits="userSpaceOnUse">
      <stop stop-color="#272052"/><stop offset=".56" stop-color="#171c3c"/><stop offset="1" stop-color="#102e3b"/>
    </linearGradient>
    <linearGradient id="shirt" x1="106" y1="244" x2="257" y2="353" gradientUnits="userSpaceOnUse">
      <stop stop-color="#7c6cff"/><stop offset="1" stop-color="#27c7b8"/>
    </linearGradient>
    <linearGradient id="skin" x1="139" y1="111" x2="230" y2="234" gradientUnits="userSpaceOnUse">
      <stop stop-color="#ffd7bd"/><stop offset="1" stop-color="#e6a887"/>
    </linearGradient>
    <filter id="glow"><feGaussianBlur stdDeviation="8"/></filter>
  </defs>
  <circle cx="180" cy="180" r="166" fill="#7c6cff" opacity=".16" filter="url(#glow)"/>
  <circle cx="180" cy="180" r="158" fill="url(#bg)" stroke="#8b83ff" stroke-opacity=".45" stroke-width="2"/>
  <circle cx="180" cy="180" r="145" fill="none" stroke="#27c7b8" stroke-opacity=".18" stroke-width="1" stroke-dasharray="4 12"/>
  <path d="M86 323c13-52 46-78 94-78s81 26 94 78" fill="url(#shirt)"/>
  <path d="M124 188c-8-13-11-36-7-58 7-42 32-66 66-66 41 0 64 29 64 76 0 26-4 42-13 54-13 18-31 29-51 29-23 0-46-13-59-35Z" fill="url(#skin)"/>
  <path d="M116 137c-8-43 15-85 67-85 44 0 72 32 64 83-15-17-28-25-48-28-23-4-45 4-67 30l-16 0Z" fill="#20243c"/>
  <path d="M140 162h14m51 0h14" stroke="#29253e" stroke-width="6" stroke-linecap="round"/>
  <circle cx="147" cy="162" r="3" fill="#29253e"/><circle cx="212" cy="162" r="3" fill="#29253e"/>
  <path d="M163 190c10 8 22 8 32 0" fill="none" stroke="#a95f61" stroke-width="4" stroke-linecap="round"/>
  <path d="M109 292c20-19 44-28 71-28 30 0 53 10 72 30" fill="none" stroke="#b5afff" stroke-opacity=".58" stroke-width="2"/>
  <text x="180" y="322" fill="white" fill-opacity=".8" font-family="monospace" font-size="12" text-anchor="middle" letter-spacing="3">KEEP BUILDING</text>
  <text x="39" y="102" fill="#83e3d9" font-family="monospace" font-size="18">&lt;/&gt;</text>
  <text x="284" y="272" fill="#b4adff" font-family="monospace" font-size="20">✦</text>
</svg>
